#!OML:ASF H:\charlestonDancing\Project 1\Capture day 1\Session 1\femaleDancer.ASF
:FULLY-SPECIFIED
:DEGREES
301
root -0.150993 17.8852 -2.49219 -175.456 -109.277 182.692
lowerback 27.6748 1.04083 9.63554
upperback 4.79561 3.9873 2.05141
thorax -9.37648 1.46007 -4.56126
lowerneck -0.295821 -1.98364 1.27557
upperneck -2.33236 -2.79041 -5.30773
head -0.772894 -1.3817 -1.85221
rclavicle 5.56597e-015 -4.6118e-014
rhumerus -33.1383 1.5545 -70.0164
rradius 66.8606
rwrist 21.4724
rhand -42.129 -43.9326
rfingers 7.12502
rthumb -15.0195 -73.3679
lclavicle 5.56597e-015 -4.6118e-014
lhumerus -54.6834 30.7438 8.32068
lradius 137.355
lwrist 15.4359
lhand -12.0505 -10.2657
lfingers 7.12502
lthumb 14.0083 19.2423
rfemur -26.3651 -4.82016 24.8302
rtibia 34.732
rfoot -14.084 -8.18221
rtoes -9.60424
lfemur -53.2068 -15.7959 -22.3267
ltibia 135.303
lfoot -16.2805 -9.74758
ltoes -31.8018
302
root -0.134422 17.9193 -2.50129 -173.132 -109.854 181.232
lowerback 26.999 0.900867 10.2962
upperback 4.59849 3.97346 2.33476
thorax -9.23291 1.44607 -4.58343
lowerneck -0.0278909 -1.85215 1.32308
upperneck -2.69157 -2.64973 -5.82771
head -0.936925 -1.30054 -2.02832
rclavicle -1.47896e-013 9.54166e-015
rhumerus -32.3874 1.2702 -69.0728
rradius 67.883
rwrist 22.6843
rhand -42.1414 -43.284
rfingers 7.12502
rthumb -15.0314 -72.7184
lclavicle -1.47896e-013 9.54166e-015
lhumerus -54.8587 30.8276 8.53507
lradius 137.101
lwrist 15.4073
lhand -11.597 -10.799
lfingers 7.12502
lthumb 14.4453 18.6782
rfemur -27.0161 -5.46128 25.5163
rtibia 33.8181
rfoot -13.746 -7.80108
rtoes -8.88785
lfemur -53.0478 -13.4732 -20.3794
ltibia 135.711
lfoot -15.6167 -10.7067
ltoes -34.6923
303
root -0.120877 17.9837 -2.50504 -172.508 -110.297 181.256
lowerback 26.6372 0.764031 10.5224
upperback 4.48057 3.84305 2.4112
thorax -9.19125 1.38284 -4.56984
lowerneck 0.251463 -1.7445 1.56491
upperneck -2.96491 -2.5361 -6.3401
head -1.0808 -1.23392 -2.23937
rclavicle -5.00937e-014 -1.74931e-014
rhumerus -31.5364 0.981706 -68.3601
rradius 68.5979
rwrist 23.3405
rhand -42.4365 -42.7094
rfingers 7.12502
rthumb -15.3157 -72.1223
lclavicle -5.00937e-014 -1.74931e-014
lhumerus -55.2061 30.8228 9.02896
lradius 137.025
lwrist 15.1113
lhand -11.503 -11.1288
lfingers 7.12502
lthumb 14.5359 18.342
rfemur -27.0075 -6.15014 25.6233
rtibia 32.3305
rfoot -13.0534 -7.29705
rtoes -8.90121
lfemur -51.7971 -11.7771 -19.4004
ltibia 133.999
lfoot -13.5493 -11.1283
ltoes -34.2748
304
root -0.114935 18.076 -2.50988 -173.101 -110.677 182.429
lowerback 26.4367 0.607889 10.3519
upperback 4.35388 3.5834 2.30024
thorax -9.27619 1.26292 -4.51143
lowerneck 0.687184 -1.65022 1.93482
upperneck -3.30285 -2.43701 -6.7424
head -1.27395 -1.17157 -2.43966
rclavicle 5.48646e-014 1.74931e-014
rhumerus -30.7304 0.824842 -67.9372
rradius 69.103
rwrist 23.4834
rhand -42.5141 -42.2593
rfingers 7.12502
rthumb -15.3904 -71.6664
lclavicle 5.48646e-014 1.74931e-014
lhumerus -55.6741 30.7199 9.62984
lradius 136.989
lwrist 14.6303
lhand -11.6061 -11.3058
lfingers 7.12502
lthumb 14.4365 18.172
rfemur -26.5772 -6.68913 25.24
rtibia 30.4498
rfoot -12.2226 -6.91985
rtoes -9.19394
lfemur -49.5744 -10.7346 -19.0601
ltibia 131.02
lfoot -12.8818 -12.3824
ltoes -31.8937
305
root -0.116066 18.1898 -2.51357 -174.109 -110.956 184.137
lowerback 26.1483 0.494251 10.003
upperback 4.21532 3.31199 2.07903
thorax -9.33411 1.14512 -4.46981
lowerneck 1.00083 -1.5749 2.06074
upperneck -3.61697 -2.35167 -6.79215
head -1.42865 -1.11913 -2.48058
rclavicle -1.11319e-014 -1.11319e-014
rhumerus -29.9407 0.760096 -67.6304
rradius 69.4905
rwrist 23.2588
rhand -42.2343 -42.1088
rfingers 7.12502
rthumb -15.1208 -71.5364
lclavicle -1.11319e-014 -1.11319e-014
lhumerus -56.0643 30.6069 10.4125
lradius 136.875
lwrist 13.7458
lhand -11.7943 -11.6951
lfingers 7.12502
lthumb 14.2552 17.7956
rfemur -26.0487 -6.62693 24.5148
rtibia 28.3573
rfoot -11.303 -6.90027
rtoes -9.63703
lfemur -47.2997 -9.9109 -19.0748
ltibia 126.985
lfoot -14.3879 -11.772
ltoes -36.7283
